<mxfile host="app.diagrams.net" agent="Mozilla/5.0 (Windows NT 10.0; Win64; x64) AppleWebKit/537.36 (KHTML, like Gecko) Chrome/126.0.0.0 Safari/537.36" version="24.7.4">
  <diagram name="Страница — 1" id="3JA7iMV7y9AjzQ0JwUj1">
    <mxGraphModel dx="1562" dy="853" grid="1" gridSize="10" guides="1" tooltips="1" connect="1" arrows="1" fold="1" page="1" pageScale="1" pageWidth="827" pageHeight="1169" math="0" shadow="0">
      <root>
        <mxCell id="0" />
        <mxCell id="1" parent="0" />
        <mxCell id="k4P8TYEaUfbqFMuQv6YY-1" value="User" style="swimlane;fontStyle=0;childLayout=stackLayout;horizontal=1;startSize=26;horizontalStack=0;resizeParent=1;resizeParentMax=0;resizeLast=0;collapsible=1;marginBottom=0;align=center;fontSize=14;" vertex="1" parent="1">
          <mxGeometry x="100" y="170" width="170" height="150" as="geometry" />
        </mxCell>
        <mxCell id="k4P8TYEaUfbqFMuQv6YY-2" value="- Имя&lt;div&gt;- Аватарка&lt;/div&gt;&lt;div&gt;- Лайки&lt;br&gt;- Цель&lt;/div&gt;&lt;div&gt;- Кол-во просмотров&lt;br&gt;- Теги&lt;br&gt;- Информация о себе&lt;br&gt;- Фото&lt;/div&gt;" style="text;strokeColor=none;fillColor=none;spacingLeft=4;spacingRight=4;overflow=hidden;rotatable=0;points=[[0,0.5],[1,0.5]];portConstraint=eastwest;fontSize=12;whiteSpace=wrap;html=1;" vertex="1" parent="k4P8TYEaUfbqFMuQv6YY-1">
          <mxGeometry y="26" width="170" height="124" as="geometry" />
        </mxCell>
        <mxCell id="k4P8TYEaUfbqFMuQv6YY-5" value="UserAuth" style="swimlane;fontStyle=0;childLayout=stackLayout;horizontal=1;startSize=26;horizontalStack=0;resizeParent=1;resizeParentMax=0;resizeLast=0;collapsible=1;marginBottom=0;align=center;fontSize=14;" vertex="1" parent="1">
          <mxGeometry x="340" y="170" width="240" height="60" as="geometry" />
        </mxCell>
        <mxCell id="k4P8TYEaUfbqFMuQv6YY-6" value="- Телефон&lt;div&gt;- Пароль&lt;/div&gt;" style="text;strokeColor=none;fillColor=none;spacingLeft=4;spacingRight=4;overflow=hidden;rotatable=0;points=[[0,0.5],[1,0.5]];portConstraint=eastwest;fontSize=12;whiteSpace=wrap;html=1;" vertex="1" parent="k4P8TYEaUfbqFMuQv6YY-5">
          <mxGeometry y="26" width="240" height="34" as="geometry" />
        </mxCell>
      </root>
    </mxGraphModel>
  </diagram>
</mxfile>
